<svg width="647" height="97" viewBox="0 0 647 97" fill="none" xmlns="http://www.w3.org/2000/svg">
<path fill-rule="evenodd" clip-rule="evenodd" d="M3.10401 47.9391C3.13764 38.2205 6.45431 28.8291 12.4343 21.2509C14.1817 19.0364 17.4432 19.0527 19.4379 21.0474L22.7543 24.3638C24.749 26.3585 24.7029 29.5723 23.0984 31.8924C19.8474 36.5935 18.0711 42.2056 18.0711 48.0009C18.0711 55.5119 21.0549 62.7152 26.3659 68.0263C31.677 73.3374 38.8804 76.3211 46.3913 76.3211C52.1866 76.3211 57.7987 74.5448 62.4998 71.2938C64.8199 69.6893 68.0338 69.6433 70.0284 71.6379L72.9232 74.5328C74.9179 76.5274 74.9342 79.7889 72.7197 81.5364C65.1415 87.5163 55.7501 90.833 46.0315 90.8666C34.6069 90.9061 23.6659 86.4056 15.6154 78.3552C7.56497 70.3047 3.06448 59.3637 3.10401 47.9391Z" fill="#367CA3"/>
<path fill-rule="evenodd" clip-rule="evenodd" d="M26.3659 68.0263C31.677 73.3374 38.8804 76.3211 46.3913 76.3211C52.1866 76.3211 57.7987 74.5448 62.4998 71.2938C64.8199 69.6893 68.0338 69.6433 70.0284 71.6379L72.9232 74.5328C74.9179 76.5274 74.9763 79.8702 72.5864 81.3688C69.9046 83.0503 67.4332 83.5594 64.6375 83.8977C61.171 84.3172 57.2059 84.7634 51.723 83.8977C39.1236 81.9082 34.4164 76.0767 26.3659 68.0263C-7.44406 34.2163 -10.108 31.5524 26.3659 68.0263Z" fill="url(#paint0_linear_15_4)"/>
<path fill-rule="evenodd" clip-rule="evenodd" d="M94.6004 42.9277C94.5667 52.6464 91.2501 62.0378 85.2701 69.616C83.5227 71.8304 80.2611 71.8141 78.2665 69.8195L74.9501 66.5031C72.9554 64.5084 73.0015 61.2946 74.6059 58.9744C77.857 54.2734 79.6332 48.6613 79.6332 42.866C79.6332 35.355 76.6495 28.1517 71.3384 22.8406C66.0274 17.5295 58.824 14.5458 51.313 14.5458C45.5178 14.5458 39.9057 16.3221 35.2046 19.5731C32.8845 21.1776 29.6706 21.2236 27.676 19.229L24.7811 16.3341C22.7865 14.3395 22.7702 11.0779 24.9846 9.33051C32.5629 3.35055 41.9542 0.0338857 51.6729 0.000258227C63.0975 -0.0392722 74.0385 4.46123 82.0889 12.5117C90.1394 20.5622 94.6399 31.5031 94.6004 42.9277Z" fill="#367CA3"/>
<path fill-rule="evenodd" clip-rule="evenodd" d="M71.3384 22.8406C66.0274 17.5295 58.824 14.5458 51.313 14.5458C45.5178 14.5458 39.9057 16.3221 35.2046 19.5731C32.8845 21.1776 29.6706 21.2236 27.676 19.229L24.7811 16.3341C22.7865 14.3395 22.7281 10.9966 25.118 9.49812C27.7998 7.8166 30.2712 7.30752 33.0669 6.96917C36.5334 6.54964 40.4985 6.10346 45.9813 6.96917C58.5807 8.95864 63.288 14.7901 71.3384 22.8406C107.812 59.3145 105.148 56.6506 71.3384 22.8406Z" fill="url(#paint1_linear_15_4)"/>
<circle cx="89.5213" cy="86.4176" r="8.50461" fill="#113147"/>
<path d="M123 96.614V0.133998H142.43L201.658 70.618V0.133998H219.48V96.614H200.05L140.688 25.996V96.614H123Z" fill="#113147"/>
<path d="M252.582 96.614C247.49 96.614 243.113 94.8273 239.45 91.254C235.877 87.5913 234.09 83.214 234.09 78.122V18.894H251.644V74.37C251.644 76.8713 251.778 78.3007 252.046 78.658C252.404 78.926 253.833 79.06 256.334 79.06H290.772C293.274 79.06 294.658 78.926 294.926 78.658C295.284 78.3007 295.462 76.8713 295.462 74.37V18.894H313.016V78.122C313.016 83.214 311.185 87.5913 307.522 91.254C303.949 94.8273 299.616 96.614 294.524 96.614H252.582Z" fill="#113147"/>
<path d="M346.022 96.614C340.93 96.614 336.553 94.7827 332.89 91.12C329.227 87.4573 327.396 83.08 327.396 77.988V18.76C327.396 13.668 329.227 9.29067 332.89 5.628C336.553 1.96533 340.93 0.133998 346.022 0.133998H405.116C410.297 0.133998 414.719 1.96533 418.382 5.628C422.045 9.29067 423.876 13.668 423.876 18.76V78.792H435.4V96.614H346.022ZM349.774 78.792H401.364C403.776 78.792 405.161 78.658 405.518 78.39C405.875 78.0327 406.054 76.6033 406.054 74.102V22.646C406.054 20.1447 405.875 18.76 405.518 18.492C405.161 18.1347 403.776 17.956 401.364 17.956H349.774C347.273 17.956 345.843 18.1347 345.486 18.492C345.218 18.76 345.084 20.1447 345.084 22.646V74.102C345.084 76.6033 345.218 78.0327 345.486 78.39C345.843 78.658 347.273 78.792 349.774 78.792Z" fill="#113147"/>
<path d="M446.226 96.614V0H463.914V78.792H542.706V96.614H446.226Z" fill="#113147"/>
<path d="M568.876 96.614C563.784 96.614 559.406 94.7827 555.744 91.12C552.081 87.4573 550.25 83.08 550.25 77.988V18.76C550.25 13.668 552.081 9.29067 555.744 5.628C559.406 1.96533 563.784 0.133998 568.876 0.133998H628.104C633.196 0.133998 637.573 1.96533 641.236 5.628C644.898 9.29067 646.73 13.668 646.73 18.76V77.988C646.73 83.08 644.898 87.4573 641.236 91.12C637.573 94.7827 633.196 96.614 628.104 96.614H568.876ZM572.628 78.792H624.218C626.63 78.792 628.014 78.658 628.372 78.39C628.729 78.0327 628.908 76.6033 628.908 74.102V22.646C628.908 20.1447 628.729 18.76 628.372 18.492C628.014 18.1347 626.63 17.956 624.218 17.956H572.628C570.126 17.956 568.697 18.1347 568.34 18.492C568.072 18.76 567.938 20.1447 567.938 22.646V74.102C567.938 76.6033 568.072 78.0327 568.34 78.39C568.697 78.658 570.126 78.792 572.628 78.792Z" fill="#113147"/>
<defs>
<linearGradient id="paint0_linear_15_4" x1="36.9188" y1="78.8579" x2="79.1268" y2="61.5337" gradientUnits="userSpaceOnUse">
<stop/>
<stop offset="1" stop-color="#367CA3"/>
</linearGradient>
<linearGradient id="paint1_linear_15_4" x1="60.7856" y1="12.009" x2="18.5776" y2="29.3332" gradientUnits="userSpaceOnUse">
<stop/>
<stop offset="1" stop-color="#367CA3"/>
</linearGradient>
</defs>
</svg>
